HIERARCHY
ROOT joint_0
{
	OFFSET 0.000000 0.000000 0.000000
	CHANNELS 6 Xposition Yposition Zposition Zrotation Yrotation Xrotation 
	JOINT joint_1
	{
		OFFSET 6.004005 -1.946999 100.587036
		CHANNELS 3 Zrotation Yrotation Xrotation
		JOINT joint_2
		{
			OFFSET -4.601006 -0.824997 91.925903
			CHANNELS 3 Zrotation Yrotation Xrotation
			JOINT joint_3
			{
				OFFSET -5.420998 -1.130005 91.774048
				CHANNELS 3 Zrotation Yrotation Xrotation
				JOINT joint_4
				{
					OFFSET 4.308998 -3.777992 123.473999
					CHANNELS 3 Zrotation Yrotation Xrotation
					JOINT joint_5
					{
						OFFSET 25.565002 -6.305008 79.437988
						CHANNELS 3 Zrotation Yrotation Xrotation
						End Site
						{
							OFFSET 0.000000 0.000000 0.000000
						}
					}
				}
				JOINT joint_6
				{
					OFFSET -1.750000 -28.655998 68.557983
					CHANNELS 3 Zrotation Yrotation Xrotation
					JOINT joint_7
					{
						OFFSET -17.692001 -116.544006 -17.244019
						CHANNELS 3 Zrotation Yrotation Xrotation
						JOINT joint_8
						{
							OFFSET 27.063004 -23.640991 -266.895020
							CHANNELS 3 Zrotation Yrotation Xrotation
							JOINT joint_9
							{
								OFFSET 40.722000 -15.761017 -232.488953
								CHANNELS 3 Zrotation Yrotation Xrotation
								End Site
								{
									OFFSET 0.000000 0.000000 0.000000
								}
							}
						}
					}
				}
				JOINT joint_10
				{
					OFFSET 6.593002 24.457001 69.892944
					CHANNELS 3 Zrotation Yrotation Xrotation
					JOINT joint_11
					{
						OFFSET 24.311996 114.920002 -19.872925
						CHANNELS 3 Zrotation Yrotation Xrotation
						JOINT joint_12
						{
							OFFSET 21.081001 15.319000 -268.037964
							CHANNELS 3 Zrotation Yrotation Xrotation
							JOINT joint_13
							{
								OFFSET 27.794006 -8.947001 -234.744080
								CHANNELS 3 Zrotation Yrotation Xrotation
								End Site
								{
									OFFSET 0.000000 0.000000 0.000000
								}
							}
						}
					}
				}
			}
		}
	}
	JOINT joint_14
	{
		OFFSET -6.627998 -80.520004 -98.790039
		CHANNELS 3 Zrotation Yrotation Xrotation
		JOINT joint_15
		{
			OFFSET -43.638000 -13.751999 -502.538971
			CHANNELS 3 Zrotation Yrotation Xrotation
			JOINT joint_16
			{
				OFFSET -39.532999 -9.912994 -398.071007
				CHANNELS 3 Zrotation Yrotation Xrotation
				JOINT joint_17
				{
					OFFSET 174.940004 -34.660995 -75.688002
					CHANNELS 3 Zrotation Yrotation Xrotation
					End Site
					{
						OFFSET 0.000000 0.000000 0.000000
					}
				}
			}
		}
	}
	JOINT joint_18
	{
		OFFSET 12.591003 79.842003 -98.765015
		CHANNELS 3 Zrotation Yrotation Xrotation
		JOINT joint_19
		{
			OFFSET -39.080002 -1.297001 -503.101013
			CHANNELS 3 Zrotation Yrotation Xrotation
			JOINT joint_20
			{
				OFFSET -51.570000 -0.514000 -396.815987
				CHANNELS 3 Zrotation Yrotation Xrotation
				JOINT joint_21
				{
					OFFSET 178.987999 -11.521999 -73.244003
					CHANNELS 3 Zrotation Yrotation Xrotation
					End Site
					{
						OFFSET 0.000000 0.000000 0.000000
					}
				}
			}
		}
	}
}
MOTION
Frames: 12
Frame Time: 0.016667
87.831001 -142.022995 1101.796021 5.350538 3.749905 -2.883058 0.148700 -3.793006 2.641721 0.188987 0.430625 -0.584252 0.209384 -1.188460 -0.111246 -0.279601 -0.807867 0.666621 0.000000 0.000000 0.000000 5.212805 3.459945 2.268057 -0.937850 5.294478 -4.061836 0.531190 -4.688414 1.088292 0.000000 0.000000 0.000000 3.001858 1.815267 0.914361 0.048486 1.331353 0.748345 0.075104 -0.597181 0.904998 0.000000 0.000000 0.000000 -12.183027 -1.373322 1.564651 -12.031513 -0.757511 0.310501 -11.642465 0.619740 -4.822557 0.000000 0.000000 0.000000 0.173316 -3.953862 7.116268 1.042323 -1.492562 -1.584788 0.858090 3.139983 0.554939 0.000000 0.000000 0.000000 
89.066002 -141.957001 1101.741943 5.383467 3.899197 -2.888315 0.160520 -3.817988 2.663848 0.201427 0.405422 -0.576782 0.218532 -1.206673 -0.127932 -0.279400 -0.736303 0.687074 0.000000 0.000000 0.000000 5.151726 3.525787 2.296180 -0.941881 5.360713 -4.114899 0.543959 -4.699907 1.135970 0.000000 0.000000 0.000000 2.958997 1.830316 0.950234 0.028791 1.348970 0.787447 0.047357 -0.423388 0.719610 0.000000 0.000000 0.000000 -12.213296 -1.490403 1.555429 -12.068869 -0.723909 0.372772 -11.683699 0.793906 -4.798821 0.000000 0.000000 0.000000 0.195697 -4.121012 7.161124 1.084207 -1.341644 -1.572132 0.903622 3.034565 0.567542 0.000000 0.000000 0.000000 
90.681999 -141.968002 1101.673950 5.406886 4.060608 -2.883639 0.176523 -3.826460 2.683280 0.214862 0.377387 -0.572288 0.231537 -1.228888 -0.143392 -0.280705 -0.654975 0.715356 0.000000 0.000000 0.000000 5.076646 3.585884 2.350667 -0.944382 5.430759 -4.227835 0.561558 -4.716016 1.201632 0.000000 0.000000 0.000000 2.899868 1.835540 0.970047 0.005107 1.341470 0.891646 0.014797 -0.195099 0.507037 0.000000 0.000000 0.000000 -12.238836 -1.626496 1.548214 -12.102043 -0.629841 0.409222 -11.717469 0.897012 -4.788675 0.000000 0.000000 0.000000 0.207971 -4.308405 7.191690 1.117242 -1.120285 -1.545621 0.944425 2.884251 0.575392 0.000000 0.000000 0.000000 
92.677002 -142.119003 1101.633057 5.406735 4.224427 -2.862784 0.196963 -3.794804 2.698221 0.231220 0.340798 -0.576047 0.246967 -1.245553 -0.152090 -0.286366 -0.579137 0.755994 0.000000 0.000000 0.000000 5.009323 3.629937 2.458951 -0.945677 5.507944 -4.437013 0.587413 -4.760589 1.294311 0.000000 0.000000 0.000000 2.819227 1.836513 0.948594 -0.015910 1.302207 1.103536 -0.019919 0.035812 0.277413 0.000000 0.000000 0.000000 -12.245705 -1.793767 1.546195 -12.117404 -0.416251 0.392756 -11.725852 0.831972 -4.807463 0.000000 0.000000 0.000000 0.208965 -4.526146 7.184131 1.141667 -0.773596 -1.508168 0.981920 2.683939 0.578777 0.000000 0.000000 0.000000 
94.987999 -142.365997 1101.602051 5.393293 4.393160 -2.828365 0.220181 -3.730249 2.711639 0.249061 0.292177 -0.587222 0.264746 -1.252053 -0.155718 -0.294934 -0.507442 0.804735 0.000000 0.000000 0.000000 4.946823 3.663690 2.608743 -0.946562 5.592851 -4.722883 0.620269 -4.835272 1.408942 0.000000 0.000000 0.000000 2.719355 1.834761 0.895195 -0.036190 1.237579 1.406642 -0.058214 0.282141 0.021800 0.000000 0.000000 0.000000 -12.241641 -1.988280 1.545426 -12.123009 -0.108459 0.338576 -11.718691 0.643501 -4.848788 0.000000 0.000000 0.000000 0.198317 -4.772893 7.148172 1.156966 -0.323567 -1.457830 1.015233 2.437672 0.577588 0.000000 0.000000 0.000000 
98.099998 -142.764999 1101.527954 5.353769 4.582145 -2.788586 0.251764 -3.660232 2.711067 0.276776 0.231421 -0.598559 0.292172 -1.252362 -0.153504 -0.303965 -0.428970 0.856966 0.000000 0.000000 0.000000 4.830147 3.672242 2.771472 -0.936487 5.652524 -5.082199 0.653973 -4.821987 1.541489 0.000000 0.000000 0.000000 2.582397 1.781195 0.845252 -0.072217 1.118903 1.739192 -0.102558 0.661788 -0.242747 0.000000 0.000000 0.000000 -12.229917 -2.177915 1.557891 -12.118961 0.227323 0.252095 -11.703375 0.433323 -4.891821 0.000000 0.000000 0.000000 0.185115 -5.004060 7.116451 1.167035 0.152263 -1.398083 1.045481 2.172862 0.573980 0.000000 0.000000 0.000000 
102.282997 -143.343002 1101.380005 5.277999 4.799356 -2.752554 0.305067 -3.601787 2.695982 0.326931 0.162459 -0.608831 0.343830 -1.252127 -0.145286 -0.313662 -0.332633 0.916640 0.000000 0.000000 0.000000 4.605778 3.666455 2.941168 -0.911941 5.686830 -5.525156 0.690650 -4.695469 1.703374 0.000000 0.000000 0.000000 2.386522 1.645665 0.843771 -0.143251 0.933518 2.063768 -0.161455 1.321388 -0.532462 0.000000 0.000000 0.000000 -12.214408 -2.326492 1.593763 -12.106061 0.512772 0.144850 -11.687089 0.293708 -4.917870 0.000000 0.000000 0.000000 0.176981 -5.179448 7.115859 1.175102 0.577312 -1.337713 1.072580 1.924431 0.570060 0.000000 0.000000 0.000000 
107.346001 -144.078003 1101.178955 5.170829 5.039689 -2.718371 0.378176 -3.543219 2.670553 0.399267 0.085594 -0.615732 0.415766 -1.254739 -0.137884 -0.326101 -0.220174 0.989844 0.000000 0.000000 0.000000 4.293463 3.653023 3.134587 -0.876860 5.709897 -6.056642 0.733120 -4.500902 1.897923 0.000000 0.000000 0.000000 2.141083 1.449290 0.876406 -0.243681 0.692948 2.410113 -0.235296 2.218272 -0.860903 0.000000 0.000000 0.000000 -12.194203 -2.446468 1.649584 -12.084515 0.770749 0.014747 -11.667817 0.191199 -4.933961 0.000000 0.000000 0.000000 0.170203 -5.316769 7.135194 1.179608 0.980293 -1.276413 1.095864 1.686042 0.565166 0.000000 0.000000 0.000000 
113.556999 -145.018997 1100.901978 5.034436 5.316719 -2.671726 0.431638 -3.507982 2.612140 0.456462 0.008406 -0.621734 0.473983 -1.261420 -0.123242 -0.331636 -0.106694 1.041758 0.000000 0.000000 0.000000 3.944040 3.538974 3.297843 -0.807573 5.620184 -6.626954 0.756385 -3.992898 2.059224 0.000000 0.000000 0.000000 1.877626 1.185085 0.849167 -0.341982 0.373541 2.766817 -0.298851 3.031534 -1.116216 0.000000 0.000000 0.000000 -12.157339 -2.608691 1.717751 -12.046594 1.160474 -0.178758 -11.631967 0.016987 -4.960027 0.000000 0.000000 0.000000 0.159875 -5.467106 7.150484 1.180175 1.479881 -1.190019 1.121469 1.384351 0.557369 0.000000 0.000000 0.000000 
121.069000 -146.199005 1100.562988 4.861132 5.638710 -2.602773 0.437777 -3.543047 2.498556 0.475589 -0.054967 -0.619938 0.494572 -1.273803 -0.100463 -0.323811 0.001104 1.050223 0.000000 0.000000 0.000000 3.566260 3.247042 3.410083 -0.678583 5.329999 -7.192440 0.732403 -2.883025 2.105039 0.000000 0.000000 0.000000 1.647958 0.818871 0.685543 -0.442528 -0.074311 3.089208 -0.334467 3.690955 -1.080471 0.000000 0.000000 0.000000 -12.098870 -2.858870 1.786110 -11.991051 1.783015 -0.450595 -11.573645 -0.286624 -5.007179 0.000000 0.000000 0.000000 0.146454 -5.639703 7.159584 1.179312 2.101649 -1.090190 1.150670 1.016884 0.547046 0.000000 0.000000 0.000000 
129.770996 -147.598007 1100.172974 4.648337 6.000967 -2.515574 0.410565 -3.640247 2.334614 0.472441 -0.102572 -0.604858 0.491641 -1.300935 -0.076005 -0.305345 0.116076 1.027894 0.000000 0.000000 0.000000 3.135440 2.808321 3.514811 -0.498032 4.878341 -7.782855 0.667997 -1.259814 2.041833 0.000000 0.000000 0.000000 1.443363 0.357604 0.410099 -0.561241 -0.645400 3.405900 -0.355569 4.330666 -0.796628 0.000000 0.000000 0.000000 -12.023749 -3.171712 1.854759 -11.921300 2.577617 -0.785630 -11.499604 -0.661379 -5.064548 0.000000 0.000000 0.000000 0.132450 -5.814402 7.169068 1.177927 2.797067 -0.988973 1.181140 0.628723 0.535985 0.000000 0.000000 0.000000 
139.828995 -149.220001 1099.586060 4.441603 6.423708 -2.410179 0.353267 -3.681728 2.133935 0.441309 -0.163950 -0.585771 0.460173 -1.356940 -0.046600 -0.275493 0.232137 0.970852 0.000000 0.000000 0.000000 2.757877 2.284465 3.570084 -0.299919 4.354225 -8.445042 0.613271 0.325984 2.022054 0.000000 0.000000 0.000000 1.143639 -0.072384 0.156258 -0.576587 -1.170688 3.848994 -0.358332 4.306194 -0.891252 0.000000 0.000000 0.000000 -11.928282 -3.566725 1.958097 -11.828507 3.558301 -1.240380 -11.408655 -1.105120 -5.131146 0.000000 0.000000 0.000000 0.099990 -6.118722 7.115109 1.165604 3.806072 -0.764556 1.228656 0.074547 0.521842 0.000000 0.000000 0.000000 
